<svg t="1725004958074" class="icon" viewBox="0 0 1024 1024" version="1.1" xmlns="http://www.w3.org/2000/svg" p-id="6207" width="24" height="24"><path d="M879.905 670.22l29.583 52.245-338.9 190.809c-35.71 20.105-79.346 20.21-115.152 0.275L113.592 723.23l29.331-52.385 341.845 190.319a57.577 57.577 0 0 0 56.236-0.135l338.9-190.808z m0-179.99l29.583 52.244-338.9 190.809c-35.71 20.105-79.346 20.21-115.152 0.275L113.592 543.239l29.331-52.385 341.845 190.319a57.577 57.577 0 0 0 56.236-0.135l338.9-190.808z m-325.13-380.792l343.08 191.66c21.085 11.779 28.601 38.37 16.789 59.394a43.697 43.697 0 0 1-16.788 16.74l-343.08 191.66a87.736 87.736 0 0 1-85.551 0l-343.08-191.66c-21.085-11.778-28.601-38.37-16.789-59.393a43.697 43.697 0 0 1 16.788-16.74l343.08-191.661a87.736 87.736 0 0 1 85.551 0z m-56.142 52.342L181.106 339.165 498.633 516.55a27.417 27.417 0 0 0 26.734 0l317.527-177.385L525.367 161.78a27.417 27.417 0 0 0-26.734 0z" fill="#2c2c2c" p-id="6208"></path></svg>