<svg t="1736998322740" class="icon" viewBox="0 0 1024 1024" version="1.1" xmlns="http://www.w3.org/2000/svg" p-id="4292" width="200" height="200"><path d="M790.655488 629.794823V406.019247c0-121.751948-94.345762-222.834134-218.714304-244.021689a62.823837 62.823837 0 0 0 6.232958-27.141151c-0.011256-36.747949-31.441083-66.521043-70.229504-66.521042-38.824237 0-70.266343 29.764907-70.266344 66.513879 0 9.463536 2.142803 18.423605 5.92085 26.597775C317.28325 181.123151 220.929762 282.996352 220.929762 406.009014v223.775576c-64.488757 41.86755-106.786095 111.318318-106.786095 190.021821v33.094746h783.305079v-33.094746c0-78.704526-42.283012-148.154271-106.793258-190.011588zM186.508811 784.752034c9.574053-38.927591 34.844599-74.04746 71.51887-97.881284l31.025621-20.125363V405.983431c0-87.803765 69.416999-162.355715 165.045987-177.273472l54.2823-8.44944 52.106752 8.860809c93.901647 15.972786 162.013931 90.357937 162.01393 176.86108v260.761955l31.029714 20.125363c36.700877 23.833825 61.974493 58.953693 71.511707 97.881285H186.508811zM647.653563 913.87281H363.986945c-11.529591 0-20.959358 9.43079-20.959358 20.956288s9.43079 20.956288 20.959358 20.956288h283.666618c11.528568 0 20.959358-9.43079 20.959357-20.956288s-9.43079-20.956288-20.959357-20.956288z" fill="#8a8a8a" p-id="4293"></path><path d="M548.1882 294.517757c-11.583826 0.147356-20.816095 9.613962-20.72809 21.198811 0.058328 11.583826 9.525957 20.963451 21.110807 20.963451 11.319813 0 67.740824 3.558036 67.740824 73.562413v195.373712c0 11.643178 9.408277 21.051455 21.051455 21.051455 11.643178 0 21.051455-9.408277 21.051455-21.051455V410.242432c0-35.311227-10.525728-63.59541-31.283494-84.117816-32.223912-31.812543-76.914764-32.047904-78.942957-31.606859z" fill="#8a8a8a" p-id="4294"></path></svg>