<svg t="1736998616749" class="icon" viewBox="0 0 1024 1024" version="1.1" xmlns="http://www.w3.org/2000/svg" p-id="6681" width="200" height="200"><path d="M864 179.2c-12.8 0-25.6 12.8-25.6 25.6l0 736c0 19.2-19.2 32-38.4 32L268.8 972.8c-19.2 0-38.4-12.8-38.4-32L230.4 204.8c0-12.8-12.8-25.6-25.6-25.6C192 179.2 185.6 192 185.6 204.8l0 736c0 44.8 38.4 83.2 83.2 83.2l531.2 0c44.8 0 83.2-38.4 83.2-83.2L883.2 204.8C889.6 192 876.8 179.2 864 179.2z" fill="#8a8a8a" p-id="6682"></path><path d="M928 108.8l-249.6 0 0-64c0-25.6-19.2-44.8-44.8-44.8L441.6 0C416 0 396.8 19.2 396.8 44.8l0 64L147.2 108.8c-12.8 0-25.6 12.8-25.6 25.6s12.8 25.6 25.6 25.6l780.8 0c12.8 0 25.6-12.8 25.6-25.6S940.8 108.8 928 108.8zM627.2 108.8 448 108.8 448 51.2l179.2 0L627.2 108.8z" fill="#8a8a8a" p-id="6683"></path><path d="M716.8 761.6 716.8 320c0-6.4-6.4-12.8-12.8-12.8S691.2 313.6 691.2 320l0 441.6c0 6.4 6.4 12.8 12.8 12.8S716.8 768 716.8 761.6z" fill="#8a8a8a" p-id="6684"></path><path d="M384 761.6 384 320c0-6.4-6.4-12.8-12.8-12.8S358.4 313.6 358.4 320l0 441.6c0 6.4 6.4 12.8 12.8 12.8S384 768 384 761.6z" fill="#8a8a8a" p-id="6685"></path><path d="M563.2 825.6l0-576c0-12.8-12.8-25.6-25.6-25.6C524.8 230.4 512 236.8 512 249.6l0 576c0 12.8 12.8 25.6 25.6 25.6C550.4 851.2 563.2 838.4 563.2 825.6z" fill="#8a8a8a" p-id="6686"></path></svg>