<svg t="1725005333871" class="icon" viewBox="0 0 1024 1024" version="1.1" xmlns="http://www.w3.org/2000/svg" p-id="11872" width="24" height="24"><path d="M512 725.333333c-117.632 0-213.333333-95.701333-213.333333-213.333333S394.368 298.666667 512 298.666667s213.333333 95.701333 213.333333 213.333333-95.701333 213.333333-213.333333 213.333333z m0-362.666666c-82.346667 0-149.333333 66.986667-149.333333 149.333333s66.986667 149.333333 149.333333 149.333333 149.333333-66.986667 149.333333-149.333333S594.346667 362.666667 512 362.666667z" p-id="11873" fill="#2c2c2c"></path><path d="M357.514667 895.957333c-9.856 0-19.722667-2.133333-28.917334-6.442666a435.445333 435.445333 0 0 1-58.272-32.949334 66.453333 66.453333 0 0 1-29.034666-62.741333 182.154667 182.154667 0 0 0-24.426667-113.621333l-0.565333-0.96c-20.565333-34.858667-51.221333-61.792-88.682667-77.962667a68.053333 68.053333 0 0 1-40.96-57.056 404.224 404.224 0 0 1-0.202667-62.762667 70.112 70.112 0 0 1 42.368-59.285333c36.885333-15.925333 67.04-42.474667 87.189334-76.757333l0.64-1.077334c20.64-34.901333 29.077333-73.984 24.682666-113.525333-2.794667-25.290667 8.746667-49.888 30.112-64.213333a424.128 424.128 0 0 1 56.768-31.925334 69.269333 69.269333 0 0 1 69.525334 6.346667 193.472 193.472 0 0 0 113.226666 36.256H512.906667a193.6 193.6 0 0 0 113.461333-36.341333 68.490667 68.490667 0 0 1 69.045333-6.474667 434.88 434.88 0 0 1 57.834667 32.650667c20.970667 14.058667 32.266667 38.218667 29.504 63.04a182.229333 182.229333 0 0 0 24.416 113.642666l0.661333 1.12c20.469333 34.677333 51.114667 61.621333 88.586667 77.792a68.032 68.032 0 0 1 40.96 57.066667c1.728 21.333333 1.76 42.944 0.096 64.234667a68.021333 68.021333 0 0 1-40.928 57.237333l-1.226667 0.544c-36.970667 15.957333-67.125333 42.506667-87.285333 76.789333l-0.565333 0.96c-20.416 34.506667-29.098667 74.645333-24.778667 113.632 2.805333 25.290667-8.725333 49.898667-30.112 64.213334a422.4 422.4 0 0 1-56.757333 31.914666 69.354667 69.354667 0 0 1-69.504-6.336 193.514667 193.514667 0 0 0-113.237334-36.266666H510.869333a192.714667 192.714667 0 0 0-112.96 36.181333 69.408 69.408 0 0 1-40.394666 13.077333z m0.085333-703.765333a5.525333 5.525333 0 0 0-2.378667 0.533333 358.005333 358.005333 0 0 0-48.170666 27.082667c-1.450667 0.970667-2.272 2.506667-2.101334 3.989333a248.074667 248.074667 0 0 1-32.928 152.64l-0.917333 1.557334c-26.997333 45.952-67.456 81.6-116.928 102.965333-2.24 0.96-3.733333 2.986667-3.904 5.28a341.109333 341.109333 0 0 0 0.170667 52.821333 4.170667 4.170667 0 0 0 2.538666 3.477334c49.994667 21.568 90.933333 57.589333 118.4 104.149333l0.565334 0.96a249.216 249.216 0 0 1 32.938666 153.312 2.613333 2.613333 0 0 0 1.130667 2.506667 370.72 370.72 0 0 0 49.674667 28.085333 4.330667 4.330667 0 0 0 4.277333-0.234667c44.586667-31.936 96.522667-48.597333 150.837333-48.597333H513.056a257.077333 257.077333 0 0 1 150.474667 48.224c1.44 1.034667 3.498667 1.173333 5.269333 0.341333a360.48 360.48 0 0 0 48.149333-27.072c1.461333-0.981333 2.261333-2.496 2.101334-3.968v-0.010666a248.021333 248.021333 0 0 1 32.938666-152.650667l0.853334-1.450667c27.072-46.048 67.530667-81.696 117.002666-103.061333l1.205334-0.533333a4.202667 4.202667 0 0 0 2.570666-3.530667c1.418667-17.92 1.386667-36.096-0.074666-54.048a4.117333 4.117333 0 0 0-2.538667-3.477333c-49.994667-21.578667-90.922667-57.589333-118.4-104.138667l-0.661333-1.12a249.024 249.024 0 0 1-32.832-153.152c0.117333-1.002667-0.490667-2.069333-1.557334-2.794667a375.04 375.04 0 0 0-49.258666-27.808 4.288 4.288 0 0 0-4.256 0.224 257.610667 257.610667 0 0 1-151.125334 48.608h-1.973333a257.226667 257.226667 0 0 1-150.474667-48.224 4.906667 4.906667 0 0 0-2.869333-0.885333z" p-id="11874" fill="#2c2c2c"></path></svg>