<svg t="1725005276261" class="icon" viewBox="0 0 1026 1024" version="1.1" xmlns="http://www.w3.org/2000/svg" p-id="10766" width="24" height="24"><path d="M911.7 870.5H114.9c-63.4 0-114.9-51.6-114.9-114.9V269.1c0-63.4 51.6-114.9 114.9-114.9h796.7c63.4 0 114.9 51.6 114.9 114.9v486.4c0.1 63.4-51.5 115-114.8 115zM114.9 192.9c-42 0-76.2 34.2-76.2 76.2v486.4c0 42 34.2 76.2 76.2 76.2h796.7c42 0 76.2-34.2 76.2-76.2V269.1c0-42-34.2-76.2-76.2-76.2H114.9z" fill="#2c2c2c" p-id="10767"></path><path d="M516.6 599L6.1 232.9l8.3-15.1c21.8-39.2 62.8-63.6 107.1-63.6h781c47.1 0 89.3 26.6 110.1 69.3l7.2 14.7L516.6 599zM58.1 222.5l458.6 328.9 452.8-324.7C953.8 205.6 929.3 193 902.6 193h-781c-24.6-0.1-47.7 11-63.5 29.5z" fill="#2c2c2c" p-id="10768"></path></svg>